<?xml version="1.0" standalone="no"?>
<!DOCTYPE svg PUBLIC "-//W3C//DTD SVG 20010904//EN"
 "http://www.w3.org/TR/2001/REC-SVG-20010904/DTD/svg10.dtd">
<svg version="1.0" xmlns="http://www.w3.org/2000/svg"
 width="60px" height="60px" viewBox="0 0 1024.000000 1024.000000"
 preserveAspectRatio="xMidYMid meet">

<g transform="translate(0.000000,1024.000000) scale(0.100000,-0.100000)"
fill="#000000" stroke="none">
<path d="M3380 9724 c-177 -26 -287 -59 -406 -123 -239 -129 -409 -336 -491
-598 l-28 -88 0 -3795 0 -3795 28 -88 c115 -369 411 -631 802 -708 100 -20
3566 -21 3665 -1 399 80 690 336 807 709 l28 88 0 3795 0 3795 -28 88 c-123
395 -447 662 -867 717 -69 9 -3448 13 -3510 4z m2499 -609 c57 -29 61 -103 9
-139 -20 -14 -101 -16 -771 -16 l-748 0 -24 25 c-37 36 -34 86 6 119 l31 26
734 0 c623 0 739 -2 763 -15z m1447 -972 c17 -13 39 -38 48 -57 15 -31 16
-275 14 -2964 l-3 -2931 -21 -28 c-12 -15 -36 -37 -55 -48 -34 -20 -52 -20
-2189 -20 -2026 0 -2157 1 -2187 17 -17 10 -42 32 -55 50 l-23 33 -3 2926 -2
2926 23 43 c13 25 37 50 57 62 34 18 105 18 2200 16 l2165 -3 31 -22z m-2108
-6388 c87 -21 157 -58 222 -121 297 -283 93 -784 -318 -784 -132 0 -232 41
-322 130 -63 63 -103 131 -125 215 -63 244 92 499 341 559 77 19 125 19 202 1z"/>
</g>
</svg>
